<svg xmlns="http://www.w3.org/2000/svg" xml:space="preserve" id="Layer_1" x="0" y="0" version="1.1" viewBox="0 0 327.1 180.2"><style>.st1{fill:#21b354}.st2{fill:#00b3eb}.st3{fill:#fff}</style><path d="M-13.1-18.2h340.2v198.4H-13.1z" style="fill:none"/><path d="M44.9 148.5c.1-.1.4-.2.5-.2.2 0 .4.1.5.2s.3.2.4.4c.1.1.4.3.6.4s.5.2.7.3c.3.1.6.1 1 .1.8 0 1.4-.2 2-.6.5-.4.8-1 .8-1.7s-.2-1.4-.7-1.8c-.4-.4-1.2-.9-2.2-1.4-.6-.3-1.2-.6-1.7-.9-.5-.4-.9-.7-1.3-1.2-.4-.4-.6-.9-.9-1.4-.2-.5-.3-1.2-.3-1.8s.1-1.2.4-1.7c.2-.5.5-1 .9-1.4s.9-.7 1.5-1c.6-.2 1.2-.4 2-.4.9 0 1.8.2 2.4.6s1.2.7 1.6 1.2c.4.4.4.7 0 1.1l-.6.6c-.1.1-.4.3-.5.3s-.4-.1-.5-.3c-.2-.2-.6-.4-1-.7s-.9-.4-1.5-.4c-.4 0-.7.1-1 .2s-.6.3-.8.5-.4.4-.5.7-.2.5-.2.8c0 .4.1.7.1 1 .1.3.3.6.5.8s.5.5.9.7.8.4 1.3.6q1.05.45 1.8.9c.5.4 1 .7 1.4 1.1s.6.9.9 1.4c.2.5.3 1.2.3 1.8s-.1 1.2-.4 1.8-.6 1.1-1.1 1.5-1 .8-1.7 1c-.6.3-1.3.4-2 .4-1.2 0-2-.1-2.7-.5-.6-.4-1.2-.8-1.7-1.3-.1-.1-.2-.3-.2-.5s.1-.4.2-.6l.6-.6zm25.3 3.1c-.2 0-.4-.1-.6-.2s-.2-.3-.2-.6v-6.6c0-.3-.1-.5-.1-.8-.1-.2-.2-.5-.4-.6-.1-.2-.4-.4-.6-.5-.3-.1-.6-.2-.9-.2s-.6.1-.9.2-.5.3-.6.5-.3.4-.4.6-.1.5-.1.8v6.6c0 .2-.1.4-.2.6-.1.1-.3.2-.6.2h-.7c-.2 0-.4-.1-.6-.2s-.2-.3-.2-.6v-6.6c0-.3-.1-.5-.1-.8-.1-.2-.2-.5-.4-.6-.1-.2-.4-.4-.6-.5-.3-.1-.6-.2-.9-.2-.4 0-.6.1-.9.2s-.5.3-.6.5-.3.4-.4.6-.1.5-.1.8v6.6c0 .2-.1.4-.2.6-.1.1-.3.2-.6.2h-.7c-.2 0-.4-.1-.6-.2s-.2-.3-.2-.6v-6.6c0-.6.1-1.2.3-1.7s.5-1 .9-1.4.9-.6 1.4-.9c.5-.2 1.2-.4 1.8-.4s1.2.1 1.7.4c.5.2.9.5 1.2.8.1.1.4.1.5 0 .3-.3.7-.6 1.2-.8s1.1-.4 1.7-.4 1.2.1 1.8.4c.5.2 1 .5 1.4.9s.6.8.9 1.4c.2.5.3 1.1.3 1.7v6.6c0 .2-.1.4-.2.6-.1.1-.3.2-.6.2H70zm11.5-8.9c0-.1-.1-.2-.2-.2h-1.9c-.9 0-1.5.3-1.9.8s-.7 1.2-.7 1.9v2.4c0 .6.2 1.2.6 1.6s.9.6 1.6.6c.4 0 .9-.1 1.2-.2.4-.1.6-.4.8-.6.2-.3.4-.6.5-.9.1-.4.1-.6.1-1zm.7 8.9c-.2 0-.4-.1-.6-.2-.1-.1-.2-.3-.2-.5 0-.1-.1-.1-.1-.2-.1 0-.1 0-.2.1-.2.3-.6.6-1 .8s-1 .3-1.7.3c-.6 0-1.2-.1-1.6-.4q-.75-.3-1.2-.9c-.4-.4-.6-.9-.8-1.4-.2-.6-.3-1.2-.3-1.9V145c0-.6.1-1.3.4-1.9s.6-1.1 1-1.5.9-.8 1.5-1 1.2-.4 1.9-.4h3.7c.2 0 .4.1.6.2.1.1.2.3.2.6v9.8c0 .2-.1.4-.2.6-.1.1-.3.2-.6.2h-.8m5.3 0c-.2 0-.4-.1-.6-.2-.1-.1-.2-.3-.2-.6v-6.4c0-1.2.4-2.2 1.1-3s1.7-1.2 3-1.2h.9c.2 0 .4.1.6.2.1.1.2.3.2.6v.6c0 .2-.1.4-.2.6-.1.1-.3.2-.6.2h-.7c-.6 0-1.1.2-1.4.6s-.4.9-.4 1.5v6.3c0 .2-.1.4-.2.6-.1.1-.3.2-.6.2zm11.1 0c-1.2 0-2.2-.4-2.7-1-.6-.7-.9-1.7-.9-2.9v-5c0-.1-.1-.2-.2-.2h-.7c-.2 0-.4-.1-.6-.2-.1-.1-.2-.3-.2-.6v-.7c0-.2.1-.4.2-.6.1-.1.3-.2.6-.2h.7c.1 0 .2-.1.2-.2v-1.7c0-.2.1-.4.2-.6.1-.1.3-.2.6-.2h.7c.2 0 .4.1.6.2.1.1.2.3.2.6v1.7c0 .1.1.2.2.2h1.9c.2 0 .4.1.6.2s.2.3.2.6v.6c0 .2-.1.4-.2.6s-.3.2-.6.2h-1.9c-.1 0-.2.1-.2.2v4.9c0 .6.1 1.1.4 1.4.2.4.6.5 1.3.5h.5c.2 0 .4.1.6.2.1.1.2.3.2.6v.6c0 .2-.1.4-.2.6-.1.1-.3.2-.6.2h-.9m28.7-16.2c0-.2.1-.4.2-.6.1-.1.3-.2.6-.2h.9c.2 0 .4.1.6.2s.2.3.2.6v10.8c0 .9-.1 1.7-.4 2.4s-.6 1.3-1.2 1.8q-.75.75-1.8 1.2c-.7.3-1.4.4-2.3.4-.5 0-1-.1-1.4-.1-.4-.1-.8-.2-1.1-.4-.4-.1-.6-.4-.9-.6s-.5-.4-.7-.7c-.2-.2-.5-.2-.7 0-.5.6-1.1 1-1.7 1.4-.6.3-1.4.5-2.4.5-.9 0-1.7-.1-2.3-.4-.7-.3-1.3-.6-1.8-1.2q-.75-.75-1.2-1.8c-.3-.7-.4-1.5-.4-2.4v-10.8c0-.2.1-.4.2-.6s.3-.2.6-.2h.9c.2 0 .4.1.6.2s.2.3.2.6v10.8c0 .5.1.9.2 1.4.1.4.3.8.6 1.1s.6.6 1 .7.9.3 1.4.3c1.2 0 1.9-.4 2.4-1s.8-1.5.8-2.5v-10.8c0-.2.1-.4.2-.6.1-.1.3-.2.6-.2h.9c.2 0 .4.1.6.2.1.1.2.3.2.6v10.8c0 .5.1.9.2 1.4.1.4.3.8.6 1.1s.6.6 1 .7.9.3 1.4.3c1.2 0 1.9-.4 2.4-1s.8-1.5.8-2.5zm12.5 7.4c0-.1-.1-.2-.2-.2h-1.9c-.9 0-1.5.3-1.9.8s-.7 1.2-.7 1.9v2.4c0 .6.2 1.2.6 1.6s.9.6 1.6.6c.4 0 .9-.1 1.2-.2.4-.1.6-.4.8-.6s.4-.6.5-.9c.1-.4.1-.6.1-1v-4.4zm.7 8.9c-.2 0-.4-.1-.6-.2-.1-.1-.2-.3-.2-.5 0-.1-.1-.1-.1-.2-.1 0-.1 0-.2.1-.2.3-.6.6-1 .8s-1 .3-1.7.3c-.6 0-1.2-.1-1.6-.4q-.75-.3-1.2-.9c-.4-.4-.6-.9-.8-1.4-.2-.6-.3-1.2-.3-1.9v-2.2c0-.6.1-1.3.4-1.9.2-.6.6-1.1 1-1.5s.9-.8 1.5-1 1.2-.4 1.9-.4h3.7c.2 0 .4.1.6.2.1.1.2.3.2.6v9.8c0 .2-.1.4-.2.6-.1.1-.3.2-.6.2h-.8zm9.1 0c-1.2 0-2.2-.4-2.7-1-.6-.7-.9-1.7-.9-2.9v-5c0-.1-.1-.2-.2-.2h-.7c-.2 0-.4-.1-.6-.2-.1-.1-.2-.3-.2-.6v-.6c0-.2.1-.4.2-.6.1-.1.3-.2.6-.2h.7c.1 0 .2-.1.2-.2v-1.7c0-.2.1-.4.2-.6s.3-.2.6-.2h.7c.2 0 .4.1.6.2.1.1.2.3.2.6v1.7c0 .1.1.2.2.2h1.9c.2 0 .4.1.6.2.1.1.2.3.2.6v.6c0 .2-.1.4-.2.6-.1.1-.3.2-.6.2h-1.9c-.1 0-.2.1-.2.2v4.9c0 .6.1 1.1.4 1.4.2.4.6.5 1.3.5h.5c.2 0 .4.1.6.2.1.1.2.3.2.6v.6c0 .2-.1.4-.2.6-.1.1-.3.2-.6.2h-.7zm11.9-2.4c.1.1.2.3.2.5s-.1.4-.2.5c-.4.4-.8.8-1.5 1.2-.6.4-1.4.5-2.3.5-.7 0-1.4-.1-1.9-.4-.6-.2-1-.5-1.4-.9s-.7-.9-.9-1.4-.4-1.1-.4-1.7v-3c0-.6.1-1.2.3-1.7.2-.6.5-1 .9-1.4s.9-.7 1.4-.9c.6-.2 1.2-.4 1.9-.4s1.3.1 1.9.4c.6.2 1 .6 1.4.9.4.4.7.9.9 1.4s.3 1.1.3 1.7v1.5c0 .2-.1.4-.2.6-.1.1-.3.2-.6.2h-5.6c-.1 0-.2.1-.2.2v.4c0 .6.2 1.2.6 1.6s.9.6 1.8.6c.6 0 1.2-.1 1.5-.4s.6-.4.8-.6q.3-.3.6-.3c.2 0 .4.1.5.2l.5.4zm-1.7-4.7c0-.6-.1-1.2-.5-1.7-.4-.4-.9-.6-1.7-.6s-1.4.2-1.7.6-.5 1-.5 1.7v.1c0 .1.1.2.2.2h3.9c.1 0 .2-.1.2-.2zm5.7 7.2c-.2 0-.4-.1-.6-.2s-.2-.3-.2-.6v-6.4c0-1.2.4-2.2 1.1-3q1.05-1.2 3-1.2h.9c.2 0 .4.1.6.2.1.1.2.3.2.6v.6c0 .2-.1.4-.2.6-.1.1-.3.2-.6.2h-.7c-.6 0-1.1.2-1.4.6s-.4.9-.4 1.5v6.3c0 .2-.1.4-.2.6s-.3.2-.6.2zm14.7 0c-.2 0-.4-.1-.6-.2-.1-.1-.2-.3-.2-.6v-15.6c0-.2.1-.4.2-.6.1-.1.3-.2.6-.2h5.3c.6 0 1.3.1 1.9.4s1.2.6 1.6 1.1c.4.4.8 1 1 1.6.3.6.4 1.2.4 1.9s-.1 1.3-.4 1.9-.6 1.2-1 1.6a5 5 0 0 1-1.6 1.1c-.6.3-1.2.4-1.9.4h-3.4c-.1 0-.2.1-.2.2v6c0 .2-.1.4-.2.6s-.3.2-.6.2h-.9zm5.1-9.3c.4 0 .6-.1 1-.1.3-.1.6-.3.9-.5q.3-.3.6-.9c.1-.4.2-.7.2-1.2 0-.4-.1-.9-.2-1.2s-.4-.6-.6-.9c-.2-.2-.5-.4-.9-.5-.3-.1-.6-.1-1-.1h-3.2c-.1 0-.2.1-.2.2v5c0 .1.1.2.2.2zm13.8-1.2c0-.2.1-.4.2-.6s.3-.2.6-.2h.7c.2 0 .4.1.6.2s.2.3.2.6v6.3c0 .6-.1 1.2-.4 1.7-.2.6-.5 1-.9 1.4s-.9.7-1.4 1c-.6.2-1.2.4-1.9.4s-1.4-.1-1.9-.4c-.6-.2-1-.6-1.4-1s-.7-.9-.9-1.4c-.2-.6-.4-1.2-.4-1.7v-6.3c0-.2.1-.4.2-.6s.3-.2.6-.2h.7c.2 0 .4.1.6.2s.2.3.2.6v6.3c0 .6.2 1.2.6 1.7s.9.7 1.8.7c.8 0 1.4-.2 1.7-.7s.6-1 .6-1.7zm6.1 10.5c-.2 0-.4-.1-.6-.2s-.2-.3-.2-.6v-6.4c0-1.2.4-2.2 1.1-3q1.05-1.2 3-1.2h.9c.2 0 .4.1.6.2s.2.3.2.6v.6c0 .2-.1.4-.2.6-.1.1-.3.2-.6.2h-.7c-.6 0-1.1.2-1.4.6s-.4.9-.4 1.5v6.3c0 .2-.1.4-.2.6s-.3.2-.6.2zm7.6-13.1c-.2 0-.4-.1-.6-.2-.1-.1-.2-.3-.2-.6v-1.2c0-.2.1-.4.2-.6.1-.1.3-.2.6-.2h.7c.2 0 .4.1.6.2.1.1.2.3.2.6v1.2c0 .2-.1.4-.2.6s-.3.2-.6.2zm0 13.1c-.2 0-.4-.1-.6-.2-.1-.1-.2-.3-.2-.6v-9.8c0-.2.1-.4.2-.6.1-.1.3-.2.6-.2h.7c.2 0 .4.1.6.2s.2.3.2.6v9.8c0 .2-.1.4-.2.6s-.3.2-.6.2zm6.8 0c-.2 0-.4-.1-.6-.2s-.2-.3-.2-.6v-8.1c0-.1-.1-.2-.2-.2h-1.2c-.2 0-.4-.1-.6-.2s-.2-.3-.2-.6v-.6c0-.2.1-.4.2-.6s.3-.2.6-.2h1.2c.1 0 .2-.1.2-.2V139c0-.6.1-1.2.3-1.7s.4-1 .8-1.4.8-.6 1.3-.9 1.1-.4 1.7-.4h.5c.2 0 .4.1.6.2.1.1.2.3.2.6v.6c0 .2-.1.4-.2.6-.1.1-.3.2-.6.2h-.4c-.6 0-1.1.2-1.4.6s-.4.9-.4 1.6v1.2c0 .1.1.2.2.2h2c.2 0 .4.1.6.2.1.1.2.3.2.6v.6c0 .2-.1.4-.2.6-.1.1-.3.2-.6.2h-2c-.1 0-.2.1-.2.2v8.1c0 .2-.1.4-.2.6-.1.1-.3.2-.6.2zm7.5-13.1c-.2 0-.4-.1-.6-.2s-.2-.3-.2-.6v-1.2c0-.2.1-.4.2-.6.1-.1.3-.2.6-.2h.7c.2 0 .4.1.6.2.1.1.2.3.2.6v1.2c0 .2-.1.4-.2.6s-.3.2-.6.2zm0 13.1c-.2 0-.4-.1-.6-.2s-.2-.3-.2-.6v-9.8c0-.2.1-.4.2-.6s.3-.2.6-.2h.7c.2 0 .4.1.6.2s.2.3.2.6v9.8c0 .2-.1.4-.2.6s-.3.2-.6.2zm12.9-2.5c.1.1.2.3.2.5s-.1.4-.2.5c-.4.4-.8.8-1.5 1.2-.6.4-1.4.5-2.3.5-.7 0-1.4-.1-1.9-.4-.6-.2-1-.5-1.4-.9s-.7-.9-.9-1.4-.4-1.1-.4-1.7v-3c0-.6.1-1.2.3-1.7.2-.6.5-1 .9-1.4s.9-.7 1.4-.9c.6-.2 1.2-.4 1.9-.4s1.3.1 1.9.4c.6.2 1 .6 1.4.9.4.4.7.9.9 1.4.2.6.3 1.1.3 1.7v1.5c0 .2-.1.4-.2.6s-.3.2-.6.2h-5.6c-.1 0-.2.1-.2.2v.4c0 .6.2 1.2.6 1.6s.9.6 1.8.6c.6 0 1.2-.1 1.5-.4.4-.2.6-.4.8-.6q.3-.3.6-.3c.2 0 .4.1.5.2l.5.4zm-1.8-4.6c0-.6-.1-1.2-.5-1.7-.4-.4-.9-.6-1.7-.6s-1.4.2-1.7.6-.5 1-.5 1.7v.1c0 .1.1.2.2.2h3.9c.1 0 .2-.1.2-.2zm5.8 7.1c-.2 0-.4-.1-.6-.2s-.2-.3-.2-.6v-6.4c0-1.2.4-2.2 1.1-3q1.05-1.2 3-1.2h.9c.2 0 .4.1.6.2.1.1.2.3.2.6v.6c0 .2-.1.4-.2.6s-.3.2-.6.2h-.7c-.6 0-1.1.2-1.4.6s-.4.9-.4 1.5v6.3c0 .2-.1.4-.2.6-.1.1-.3.2-.6.2z" class="st1"/><path d="M72 83.5q0-9-6.3-15.3c-6.3-6.3-9.3-6.3-15.3-6.3S39.3 64 35.1 68.2s-6.3 9.3-6.3 15.3 2.1 11.1 6.3 15.3q6.3 6.3 15.3 6.3c9 0 11.1-2.1 15.3-6.3C70 94.7 72 89.6 72 83.5m13.5 0q0 14.7-10.2 24.9c-6.8 6.8-15.1 10.2-24.8 10.2q-14.7 0-24.9-10.2T15.4 83.5c0-9.7 3.4-18 10.2-24.8s15.1-10.2 24.9-10.2c9.7 0 18 3.4 24.8 10.2s10.2 15.1 10.2 24.8M205.2 55.2c0 1.9-.6 3.6-1.9 4.8-1.3 1.3-2.9 1.9-4.8 1.9h-24.8v14.9h18.5c1.9 0 3.6.6 4.8 1.9 1.3 1.3 1.9 2.9 1.9 4.8s-.6 3.6-1.9 4.8c-1.3 1.3-2.9 1.9-4.8 1.9h-18.5v15h24.8c1.9 0 3.6.6 4.8 1.9 1.3 1.3 1.9 2.9 1.9 4.8s-.6 3.6-1.9 4.8c-1.3 1.3-2.9 1.9-4.8 1.9l-31.5-.1c-1.8 0-3.4-.7-4.7-2-1.4-1.4-2-3-2-4.7V55c0-1.8.6-3.4 2-4.7 1.4-1.4 2.9-2 4.7-2h31.5c1.9 0 3.6.6 4.8 1.9 1.3 1.3 1.9 2.9 1.9 4.8zM151.7 103.7c0 2.3-1.7 4.8-5.1 7.4-6.5 5-13.8 7.6-21.8 7.6-9.7 0-18-3.5-24.8-10.3S89.7 93.3 89.7 83.6s3.5-18 10.3-24.8 15.1-10.3 24.8-10.3c8.1 0 15.3 2.5 21.8 7.6 3.4 2.7 5.1 5.1 5.1 7.4 0 1.8-.7 3.5-2.1 4.8q-2.1 2.1-4.8 2.1c-1.5 0-3.1-.7-4.7-2.1-.4-.4-1.1-1-2.1-1.9q-5.7-4.5-13.2-4.5-9 0-15.3 6.3t-6.3 15.3c0 9 2.1 11.1 6.3 15.3q6.3 6.3 15.3 6.3 7.5 0 13.2-4.5c.4-.4 1.1-1 2.1-1.9 1.7-1.4 3.2-2.1 4.7-2.1 1.8 0 3.5.7 4.8 2.1 1.4 1.5 2.1 3.2 2.1 5" class="st2"/><path d="M266.1 83.5q0-9-6.3-15.3t-15.3-6.3c-9 0-11.1 2.1-15.3 6.3s-6.3 9.3-6.3 15.3 2.1 11.1 6.3 15.3q6.3 6.3 15.3 6.3c9 0 11.1-2.1 15.3-6.3q6.3-6.15 6.3-15.3m13.4 0q0 14.7-10.2 24.9c-6.8 6.8-15.1 10.2-24.8 10.2q-14.7 0-24.9-10.2t-10.2-24.9c0-9.7 3.4-18 10.2-24.8s15.1-10.2 24.9-10.2c9.7 0 18 3.4 24.8 10.2s10.2 15.1 10.2 24.8" class="st1"/><path d="M286 13.3c-1.9 14.9-12.8 25.4-12.8 32.5S279 58.6 286 58.6s12.8-5.8 12.8-12.8-11-17.6-12.8-32.5" class="st2"/><path d="M289.1 56.3c4.5-1.4 7.8-5.5 7.8-10.5 0-3.3-3.8-9.4-5.5-12.4-.2-.4-.5-.9-.7-1.3 1.4 4.3 3 9.6 2.9 12.5-.1 4.9-1.8 9.3-4.5 11.7" class="st3"/><path d="M261.4 10.2c-1.2 9.6-8.3 16.5-8.3 21.1s3.7 8.3 8.3 8.3 8.3-3.7 8.3-8.3c0-4.7-7.1-11.4-8.3-21.1" class="st2"/><path d="M264.1 37.7c2.3-1.3 3.9-3.8 3.8-6.7 0-1.6-1.2-4-2.4-6 .3 1.5.5 2.9.5 3.9 0 3.4-.7 6.6-1.9 8.8" class="st3"/><path d="M302.5 19.2h-3.7v-1.3h9.1v1.3h-3.8v10.9h-1.6zM319.6 24.7c-.1-1.7-.2-3.8-.2-5.3h-.1c-.4 1.4-.9 3-1.5 4.7l-2.2 6h-1.2l-2-5.9c-.6-1.7-1.1-3.3-1.4-4.8 0 1.5-.1 3.6-.2 5.4l-.3 5.3H309l.9-12.3h2l2.1 5.9c.5 1.5.9 2.9 1.2 4.1h.1c.3-1.2.7-2.6 1.3-4.1l2.2-5.9h2l.8 12.3h-1.5z"/></svg>