<?xml version="1.0" encoding="utf-8"?>
<!-- Generator: Adobe Illustrator 21.0.0, SVG Export Plug-In . SVG Version: 6.00 Build 0)  -->
<svg version="1.1" id="Layer_1" xmlns="http://www.w3.org/2000/svg" xmlns:xlink="http://www.w3.org/1999/xlink" x="0px" y="0px"
	 viewBox="0 0 327.1 180.2" style="enable-background:new 0 0 327.1 180.2;" xml:space="preserve">
<style type="text/css">
	.st0{fill:none;}
	.st1{fill:#21B354;}
	.st2{fill:#00B3EB;}
	.st3{fill:#FFFFFF;}
	.st4{enable-background:new    ;}
</style>
<polygon class="st0" points="-13.1,-18.2 327.1,-18.2 327.1,180.2 -13.1,180.2 "/>
<path class="st1" d="M44.9,148.5c0.1-0.1,0.4-0.2,0.5-0.2c0.2,0,0.4,0.1,0.5,0.2c0.1,0.1,0.3,0.2,0.4,0.4c0.1,0.1,0.4,0.3,0.6,0.4
	c0.2,0.1,0.5,0.2,0.7,0.3c0.3,0.1,0.6,0.1,1,0.1c0.8,0,1.4-0.2,2-0.6c0.5-0.4,0.8-1,0.8-1.7s-0.2-1.4-0.7-1.8
	c-0.4-0.4-1.2-0.9-2.2-1.4c-0.6-0.3-1.2-0.6-1.7-0.9c-0.5-0.4-0.9-0.7-1.3-1.2c-0.4-0.4-0.6-0.9-0.9-1.4c-0.2-0.5-0.3-1.2-0.3-1.8
	s0.1-1.2,0.4-1.7c0.2-0.5,0.5-1,0.9-1.4s0.9-0.7,1.5-1c0.6-0.2,1.2-0.4,2-0.4c0.9,0,1.8,0.2,2.4,0.6c0.6,0.4,1.2,0.7,1.6,1.2
	c0.4,0.4,0.4,0.7,0,1.1l-0.6,0.6c-0.1,0.1-0.4,0.3-0.5,0.3s-0.4-0.1-0.5-0.3c-0.2-0.2-0.6-0.4-1-0.7s-0.9-0.4-1.5-0.4
	c-0.4,0-0.7,0.1-1,0.2c-0.3,0.1-0.6,0.3-0.8,0.5s-0.4,0.4-0.5,0.7s-0.2,0.5-0.2,0.8c0,0.4,0.1,0.7,0.1,1c0.1,0.3,0.3,0.6,0.5,0.8
	s0.5,0.5,0.9,0.7s0.8,0.4,1.3,0.6c0.7,0.3,1.3,0.6,1.8,0.9c0.5,0.4,1,0.7,1.4,1.1c0.4,0.4,0.6,0.9,0.9,1.4c0.2,0.5,0.3,1.2,0.3,1.8
	s-0.1,1.2-0.4,1.8c-0.3,0.6-0.6,1.1-1.1,1.5s-1,0.8-1.7,1c-0.6,0.3-1.3,0.4-2,0.4c-1.2,0-2-0.1-2.7-0.5c-0.6-0.4-1.2-0.8-1.7-1.3
	c-0.1-0.1-0.2-0.3-0.2-0.5s0.1-0.4,0.2-0.6l0.6-0.6L44.9,148.5L44.9,148.5z M70.2,151.6c-0.2,0-0.4-0.1-0.6-0.2s-0.2-0.3-0.2-0.6
	v-6.6c0-0.3-0.1-0.5-0.1-0.8c-0.1-0.2-0.2-0.5-0.4-0.6c-0.1-0.2-0.4-0.4-0.6-0.5c-0.3-0.1-0.6-0.2-0.9-0.2s-0.6,0.1-0.9,0.2
	c-0.3,0.1-0.5,0.3-0.6,0.5s-0.3,0.4-0.4,0.6s-0.1,0.5-0.1,0.8v6.6c0,0.2-0.1,0.4-0.2,0.6c-0.1,0.1-0.3,0.2-0.6,0.2h-0.7
	c-0.2,0-0.4-0.1-0.6-0.2s-0.2-0.3-0.2-0.6v-6.6c0-0.3-0.1-0.5-0.1-0.8c-0.1-0.2-0.2-0.5-0.4-0.6c-0.1-0.2-0.4-0.4-0.6-0.5
	c-0.3-0.1-0.6-0.2-0.9-0.2c-0.4,0-0.6,0.1-0.9,0.2c-0.3,0.1-0.5,0.3-0.6,0.5s-0.3,0.4-0.4,0.6c-0.1,0.2-0.1,0.5-0.1,0.8v6.6
	c0,0.2-0.1,0.4-0.2,0.6c-0.1,0.1-0.3,0.2-0.6,0.2h-0.7c-0.2,0-0.4-0.1-0.6-0.2s-0.2-0.3-0.2-0.6v-6.6c0-0.6,0.1-1.2,0.3-1.7
	s0.5-1,0.9-1.4s0.9-0.6,1.4-0.9c0.5-0.2,1.2-0.4,1.8-0.4s1.2,0.1,1.7,0.4c0.5,0.2,0.9,0.5,1.2,0.8c0.1,0.1,0.4,0.1,0.5,0
	c0.3-0.3,0.7-0.6,1.2-0.8s1.1-0.4,1.7-0.4s1.2,0.1,1.8,0.4c0.5,0.2,1,0.5,1.4,0.9s0.6,0.8,0.9,1.4c0.2,0.5,0.3,1.1,0.3,1.7v6.6
	c0,0.2-0.1,0.4-0.2,0.6c-0.1,0.1-0.3,0.2-0.6,0.2H70H70.2z M81.7,142.7c0-0.1-0.1-0.2-0.2-0.2h-1.9c-0.9,0-1.5,0.3-1.9,0.8
	s-0.7,1.2-0.7,1.9v2.4c0,0.6,0.2,1.2,0.6,1.6c0.4,0.4,0.9,0.6,1.6,0.6c0.4,0,0.9-0.1,1.2-0.2c0.4-0.1,0.6-0.4,0.8-0.6
	c0.2-0.3,0.4-0.6,0.5-0.9c0.1-0.4,0.1-0.6,0.1-1L81.7,142.7L81.7,142.7z M82.4,151.6c-0.2,0-0.4-0.1-0.6-0.2
	c-0.1-0.1-0.2-0.3-0.2-0.5c0-0.1-0.1-0.1-0.1-0.2c-0.1,0-0.1,0-0.2,0.1c-0.2,0.3-0.6,0.6-1,0.8s-1,0.3-1.7,0.3
	c-0.6,0-1.2-0.1-1.6-0.4c-0.5-0.2-0.9-0.5-1.2-0.9c-0.4-0.4-0.6-0.9-0.8-1.4c-0.2-0.6-0.3-1.2-0.3-1.9V145c0-0.6,0.1-1.3,0.4-1.9
	s0.6-1.1,1-1.5s0.9-0.8,1.5-1s1.2-0.4,1.9-0.4h3.7c0.2,0,0.4,0.1,0.6,0.2c0.1,0.1,0.2,0.3,0.2,0.6v9.8c0,0.2-0.1,0.4-0.2,0.6
	c-0.1,0.1-0.3,0.2-0.6,0.2h-0.7L82.4,151.6L82.4,151.6z M87.7,151.6c-0.2,0-0.4-0.1-0.6-0.2c-0.1-0.1-0.2-0.3-0.2-0.6v-6.4
	c0-1.2,0.4-2.2,1.1-3s1.7-1.2,3-1.2h0.9c0.2,0,0.4,0.1,0.6,0.2c0.1,0.1,0.2,0.3,0.2,0.6v0.6c0,0.2-0.1,0.4-0.2,0.6
	c-0.1,0.1-0.3,0.2-0.6,0.2h-0.7c-0.6,0-1.1,0.2-1.4,0.6c-0.3,0.4-0.4,0.9-0.4,1.5v6.3c0,0.2-0.1,0.4-0.2,0.6
	c-0.1,0.1-0.3,0.2-0.6,0.2L87.7,151.6L87.7,151.6z M98.8,151.6c-1.2,0-2.2-0.4-2.7-1c-0.6-0.7-0.9-1.7-0.9-2.9v-5
	c0-0.1-0.1-0.2-0.2-0.2h-0.7c-0.2,0-0.4-0.1-0.6-0.2c-0.1-0.1-0.2-0.3-0.2-0.6V141c0-0.2,0.1-0.4,0.2-0.6c0.1-0.1,0.3-0.2,0.6-0.2
	H95c0.1,0,0.2-0.1,0.2-0.2v-1.7c0-0.2,0.1-0.4,0.2-0.6c0.1-0.1,0.3-0.2,0.6-0.2h0.7c0.2,0,0.4,0.1,0.6,0.2c0.1,0.1,0.2,0.3,0.2,0.6
	v1.7c0,0.1,0.1,0.2,0.2,0.2h1.9c0.2,0,0.4,0.1,0.6,0.2s0.2,0.3,0.2,0.6v0.6c0,0.2-0.1,0.4-0.2,0.6s-0.3,0.2-0.6,0.2h-1.9
	c-0.1,0-0.2,0.1-0.2,0.2v4.9c0,0.6,0.1,1.1,0.4,1.4c0.2,0.4,0.6,0.5,1.3,0.5h0.5c0.2,0,0.4,0.1,0.6,0.2c0.1,0.1,0.2,0.3,0.2,0.6v0.6
	c0,0.2-0.1,0.4-0.2,0.6c-0.1,0.1-0.3,0.2-0.6,0.2H99H98.8z M127.5,135.4c0-0.2,0.1-0.4,0.2-0.6c0.1-0.1,0.3-0.2,0.6-0.2h0.9
	c0.2,0,0.4,0.1,0.6,0.2s0.2,0.3,0.2,0.6v10.8c0,0.9-0.1,1.7-0.4,2.4s-0.6,1.3-1.2,1.8c-0.5,0.5-1.1,0.9-1.8,1.2
	c-0.7,0.3-1.4,0.4-2.3,0.4c-0.5,0-1-0.1-1.4-0.1c-0.4-0.1-0.8-0.2-1.1-0.4c-0.4-0.1-0.6-0.4-0.9-0.6c-0.3-0.2-0.5-0.4-0.7-0.7
	c-0.2-0.2-0.5-0.2-0.7,0c-0.5,0.6-1.1,1-1.7,1.4c-0.6,0.3-1.4,0.5-2.4,0.5c-0.9,0-1.7-0.1-2.3-0.4c-0.7-0.3-1.3-0.6-1.8-1.2
	c-0.5-0.5-0.9-1.1-1.2-1.8c-0.3-0.7-0.4-1.5-0.4-2.4v-10.8c0-0.2,0.1-0.4,0.2-0.6s0.3-0.2,0.6-0.2h0.9c0.2,0,0.4,0.1,0.6,0.2
	s0.2,0.3,0.2,0.6v10.8c0,0.5,0.1,0.9,0.2,1.4c0.1,0.4,0.3,0.8,0.6,1.1c0.3,0.3,0.6,0.6,1,0.7c0.4,0.1,0.9,0.3,1.4,0.3
	c1.2,0,1.9-0.4,2.4-1s0.8-1.5,0.8-2.5v-10.8c0-0.2,0.1-0.4,0.2-0.6c0.1-0.1,0.3-0.2,0.6-0.2h0.9c0.2,0,0.4,0.1,0.6,0.2
	c0.1,0.1,0.2,0.3,0.2,0.6v10.8c0,0.5,0.1,0.9,0.2,1.4c0.1,0.4,0.3,0.8,0.6,1.1c0.3,0.3,0.6,0.6,1,0.7s0.9,0.3,1.4,0.3
	c1.2,0,1.9-0.4,2.4-1s0.8-1.5,0.8-2.5L127.5,135.4L127.5,135.4z M140,142.8c0-0.1-0.1-0.2-0.2-0.2h-1.9c-0.9,0-1.5,0.3-1.9,0.8
	s-0.7,1.2-0.7,1.9v2.4c0,0.6,0.2,1.2,0.6,1.6c0.4,0.4,0.9,0.6,1.6,0.6c0.4,0,0.9-0.1,1.2-0.2c0.4-0.1,0.6-0.4,0.8-0.6
	s0.4-0.6,0.5-0.9c0.1-0.4,0.1-0.6,0.1-1v-4.4H140z M140.7,151.7c-0.2,0-0.4-0.1-0.6-0.2c-0.1-0.1-0.2-0.3-0.2-0.5
	c0-0.1-0.1-0.1-0.1-0.2c-0.1,0-0.1,0-0.2,0.1c-0.2,0.3-0.6,0.6-1,0.8s-1,0.3-1.7,0.3c-0.6,0-1.2-0.1-1.6-0.4
	c-0.5-0.2-0.9-0.5-1.2-0.9c-0.4-0.4-0.6-0.9-0.8-1.4c-0.2-0.6-0.3-1.2-0.3-1.9v-2.2c0-0.6,0.1-1.3,0.4-1.9c0.2-0.6,0.6-1.1,1-1.5
	s0.9-0.8,1.5-1s1.2-0.4,1.9-0.4h3.7c0.2,0,0.4,0.1,0.6,0.2c0.1,0.1,0.2,0.3,0.2,0.6v9.8c0,0.2-0.1,0.4-0.2,0.6
	c-0.1,0.1-0.3,0.2-0.6,0.2h-0.7h-0.1V151.7z M149.8,151.7c-1.2,0-2.2-0.4-2.7-1c-0.6-0.7-0.9-1.7-0.9-2.9v-5c0-0.1-0.1-0.2-0.2-0.2
	h-0.7c-0.2,0-0.4-0.1-0.6-0.2c-0.1-0.1-0.2-0.3-0.2-0.6v-0.6c0-0.2,0.1-0.4,0.2-0.6c0.1-0.1,0.3-0.2,0.6-0.2h0.7
	c0.1,0,0.2-0.1,0.2-0.2v-1.7c0-0.2,0.1-0.4,0.2-0.6s0.3-0.2,0.6-0.2h0.7c0.2,0,0.4,0.1,0.6,0.2c0.1,0.1,0.2,0.3,0.2,0.6v1.7
	c0,0.1,0.1,0.2,0.2,0.2h1.9c0.2,0,0.4,0.1,0.6,0.2c0.1,0.1,0.2,0.3,0.2,0.6v0.6c0,0.2-0.1,0.4-0.2,0.6c-0.1,0.1-0.3,0.2-0.6,0.2
	h-1.9c-0.1,0-0.2,0.1-0.2,0.2v4.9c0,0.6,0.1,1.1,0.4,1.4c0.2,0.4,0.6,0.5,1.3,0.5h0.5c0.2,0,0.4,0.1,0.6,0.2
	c0.1,0.1,0.2,0.3,0.2,0.6v0.6c0,0.2-0.1,0.4-0.2,0.6c-0.1,0.1-0.3,0.2-0.6,0.2H150L149.8,151.7z M161.7,149.3
	c0.1,0.1,0.2,0.3,0.2,0.5s-0.1,0.4-0.2,0.5c-0.4,0.4-0.8,0.8-1.5,1.2c-0.6,0.4-1.4,0.5-2.3,0.5c-0.7,0-1.4-0.1-1.9-0.4
	c-0.6-0.2-1-0.5-1.4-0.9s-0.7-0.9-0.9-1.4s-0.4-1.1-0.4-1.7v-3c0-0.6,0.1-1.2,0.3-1.7c0.2-0.6,0.5-1,0.9-1.4s0.9-0.7,1.4-0.9
	c0.6-0.2,1.2-0.4,1.9-0.4s1.3,0.1,1.9,0.4c0.6,0.2,1,0.6,1.4,0.9c0.4,0.4,0.7,0.9,0.9,1.4s0.3,1.1,0.3,1.7v1.5
	c0,0.2-0.1,0.4-0.2,0.6c-0.1,0.1-0.3,0.2-0.6,0.2h-5.6c-0.1,0-0.2,0.1-0.2,0.2v0.4c0,0.6,0.2,1.2,0.6,1.6c0.4,0.4,0.9,0.6,1.8,0.6
	c0.6,0,1.2-0.1,1.5-0.4s0.6-0.4,0.8-0.6c0.2-0.2,0.4-0.3,0.6-0.3c0.2,0,0.4,0.1,0.5,0.2l0.5,0.4L161.7,149.3z M160,144.6
	c0-0.6-0.1-1.2-0.5-1.7c-0.4-0.4-0.9-0.6-1.7-0.6s-1.4,0.2-1.7,0.6c-0.3,0.4-0.5,1-0.5,1.7v0.1c0,0.1,0.1,0.2,0.2,0.2h3.9
	c0.1,0,0.2-0.1,0.2-0.2L160,144.6L160,144.6z M165.7,151.8c-0.2,0-0.4-0.1-0.6-0.2s-0.2-0.3-0.2-0.6v-6.4c0-1.2,0.4-2.2,1.1-3
	c0.7-0.8,1.7-1.2,3-1.2h0.9c0.2,0,0.4,0.1,0.6,0.2c0.1,0.1,0.2,0.3,0.2,0.6v0.6c0,0.2-0.1,0.4-0.2,0.6c-0.1,0.1-0.3,0.2-0.6,0.2
	h-0.7c-0.6,0-1.1,0.2-1.4,0.6c-0.3,0.4-0.4,0.9-0.4,1.5v6.3c0,0.2-0.1,0.4-0.2,0.6s-0.3,0.2-0.6,0.2L165.7,151.8L165.7,151.8z
	 M180.4,151.8c-0.2,0-0.4-0.1-0.6-0.2c-0.1-0.1-0.2-0.3-0.2-0.6v-15.6c0-0.2,0.1-0.4,0.2-0.6c0.1-0.1,0.3-0.2,0.6-0.2h5.3
	c0.6,0,1.3,0.1,1.9,0.4c0.6,0.3,1.2,0.6,1.6,1.1c0.4,0.4,0.8,1,1,1.6c0.3,0.6,0.4,1.2,0.4,1.9s-0.1,1.3-0.4,1.9
	c-0.3,0.6-0.6,1.2-1,1.6c-0.4,0.4-0.9,0.8-1.6,1.1c-0.6,0.3-1.2,0.4-1.9,0.4h-3.4c-0.1,0-0.2,0.1-0.2,0.2v6c0,0.2-0.1,0.4-0.2,0.6
	s-0.3,0.2-0.6,0.2h-0.9V151.8z M185.5,142.5c0.4,0,0.6-0.1,1-0.1c0.3-0.1,0.6-0.3,0.9-0.5c0.2-0.2,0.4-0.5,0.6-0.9
	c0.1-0.4,0.2-0.7,0.2-1.2c0-0.4-0.1-0.9-0.2-1.2s-0.4-0.6-0.6-0.9c-0.2-0.2-0.5-0.4-0.9-0.5c-0.3-0.1-0.6-0.1-1-0.1h-3.2
	c-0.1,0-0.2,0.1-0.2,0.2v5c0,0.1,0.1,0.2,0.2,0.2H185.5z M199.3,141.3c0-0.2,0.1-0.4,0.2-0.6s0.3-0.2,0.6-0.2h0.7
	c0.2,0,0.4,0.1,0.6,0.2s0.2,0.3,0.2,0.6v6.3c0,0.6-0.1,1.2-0.4,1.7c-0.2,0.6-0.5,1-0.9,1.4s-0.9,0.7-1.4,1c-0.6,0.2-1.2,0.4-1.9,0.4
	s-1.4-0.1-1.9-0.4c-0.6-0.2-1-0.6-1.4-1s-0.7-0.9-0.9-1.4c-0.2-0.6-0.4-1.2-0.4-1.7v-6.3c0-0.2,0.1-0.4,0.2-0.6s0.3-0.2,0.6-0.2h0.7
	c0.2,0,0.4,0.1,0.6,0.2s0.2,0.3,0.2,0.6v6.3c0,0.6,0.2,1.2,0.6,1.7c0.4,0.5,0.9,0.7,1.8,0.7c0.8,0,1.4-0.2,1.7-0.7s0.6-1,0.6-1.7
	L199.3,141.3L199.3,141.3z M205.4,151.8c-0.2,0-0.4-0.1-0.6-0.2s-0.2-0.3-0.2-0.6v-6.4c0-1.2,0.4-2.2,1.1-3c0.7-0.8,1.7-1.2,3-1.2
	h0.9c0.2,0,0.4,0.1,0.6,0.2s0.2,0.3,0.2,0.6v0.6c0,0.2-0.1,0.4-0.2,0.6c-0.1,0.1-0.3,0.2-0.6,0.2h-0.7c-0.6,0-1.1,0.2-1.4,0.6
	c-0.3,0.4-0.4,0.9-0.4,1.5v6.3c0,0.2-0.1,0.4-0.2,0.6s-0.3,0.2-0.6,0.2L205.4,151.8L205.4,151.8z M213,138.7c-0.2,0-0.4-0.1-0.6-0.2
	c-0.1-0.1-0.2-0.3-0.2-0.6v-1.2c0-0.2,0.1-0.4,0.2-0.6c0.1-0.1,0.3-0.2,0.6-0.2h0.7c0.2,0,0.4,0.1,0.6,0.2c0.1,0.1,0.2,0.3,0.2,0.6
	v1.2c0,0.2-0.1,0.4-0.2,0.6s-0.3,0.2-0.6,0.2H213z M213,151.8c-0.2,0-0.4-0.1-0.6-0.2c-0.1-0.1-0.2-0.3-0.2-0.6v-9.8
	c0-0.2,0.1-0.4,0.2-0.6c0.1-0.1,0.3-0.2,0.6-0.2h0.7c0.2,0,0.4,0.1,0.6,0.2s0.2,0.3,0.2,0.6v9.8c0,0.2-0.1,0.4-0.2,0.6
	s-0.3,0.2-0.6,0.2H213z M219.8,151.8c-0.2,0-0.4-0.1-0.6-0.2s-0.2-0.3-0.2-0.6v-8.1c0-0.1-0.1-0.2-0.2-0.2h-1.2
	c-0.2,0-0.4-0.1-0.6-0.2s-0.2-0.3-0.2-0.6v-0.6c0-0.2,0.1-0.4,0.2-0.6s0.3-0.2,0.6-0.2h1.2c0.1,0,0.2-0.1,0.2-0.2V139
	c0-0.6,0.1-1.2,0.3-1.7s0.4-1,0.8-1.4s0.8-0.6,1.3-0.9s1.1-0.4,1.7-0.4h0.5c0.2,0,0.4,0.1,0.6,0.2c0.1,0.1,0.2,0.3,0.2,0.6v0.6
	c0,0.2-0.1,0.4-0.2,0.6c-0.1,0.1-0.3,0.2-0.6,0.2h-0.4c-0.6,0-1.1,0.2-1.4,0.6c-0.3,0.4-0.4,0.9-0.4,1.6v1.2c0,0.1,0.1,0.2,0.2,0.2
	h2c0.2,0,0.4,0.1,0.6,0.2c0.1,0.1,0.2,0.3,0.2,0.6v0.6c0,0.2-0.1,0.4-0.2,0.6c-0.1,0.1-0.3,0.2-0.6,0.2h-2c-0.1,0-0.2,0.1-0.2,0.2
	v8.1c0,0.2-0.1,0.4-0.2,0.6c-0.1,0.1-0.3,0.2-0.6,0.2L219.8,151.8L219.8,151.8z M227.3,138.7c-0.2,0-0.4-0.1-0.6-0.2
	s-0.2-0.3-0.2-0.6v-1.2c0-0.2,0.1-0.4,0.2-0.6c0.1-0.1,0.3-0.2,0.6-0.2h0.7c0.2,0,0.4,0.1,0.6,0.2c0.1,0.1,0.2,0.3,0.2,0.6v1.2
	c0,0.2-0.1,0.4-0.2,0.6s-0.3,0.2-0.6,0.2H227.3z M227.3,151.8c-0.2,0-0.4-0.1-0.6-0.2s-0.2-0.3-0.2-0.6v-9.8c0-0.2,0.1-0.4,0.2-0.6
	s0.3-0.2,0.6-0.2h0.7c0.2,0,0.4,0.1,0.6,0.2s0.2,0.3,0.2,0.6v9.8c0,0.2-0.1,0.4-0.2,0.6s-0.3,0.2-0.6,0.2H227.3z M240.2,149.3
	c0.1,0.1,0.2,0.3,0.2,0.5s-0.1,0.4-0.2,0.5c-0.4,0.4-0.8,0.8-1.5,1.2c-0.6,0.4-1.4,0.5-2.3,0.5c-0.7,0-1.4-0.1-1.9-0.4
	c-0.6-0.2-1-0.5-1.4-0.9s-0.7-0.9-0.9-1.4s-0.4-1.1-0.4-1.7v-3c0-0.6,0.1-1.2,0.3-1.7c0.2-0.6,0.5-1,0.9-1.4s0.9-0.7,1.4-0.9
	c0.6-0.2,1.2-0.4,1.9-0.4s1.3,0.1,1.9,0.4c0.6,0.2,1,0.6,1.4,0.9c0.4,0.4,0.7,0.9,0.9,1.4c0.2,0.6,0.3,1.1,0.3,1.7v1.5
	c0,0.2-0.1,0.4-0.2,0.6s-0.3,0.2-0.6,0.2h-5.6c-0.1,0-0.2,0.1-0.2,0.2v0.4c0,0.6,0.2,1.2,0.6,1.6c0.4,0.4,0.9,0.6,1.8,0.6
	c0.6,0,1.2-0.1,1.5-0.4c0.4-0.2,0.6-0.4,0.8-0.6c0.2-0.2,0.4-0.3,0.6-0.3c0.2,0,0.4,0.1,0.5,0.2l0.5,0.4L240.2,149.3z M238.4,144.7
	c0-0.6-0.1-1.2-0.5-1.7c-0.4-0.4-0.9-0.6-1.7-0.6s-1.4,0.2-1.7,0.6c-0.3,0.4-0.5,1-0.5,1.7v0.1c0,0.1,0.1,0.2,0.2,0.2h3.9
	c0.1,0,0.2-0.1,0.2-0.2L238.4,144.7L238.4,144.7z M244.2,151.8c-0.2,0-0.4-0.1-0.6-0.2s-0.2-0.3-0.2-0.6v-6.4c0-1.2,0.4-2.2,1.1-3
	c0.7-0.8,1.7-1.2,3-1.2h0.9c0.2,0,0.4,0.1,0.6,0.2c0.1,0.1,0.2,0.3,0.2,0.6v0.6c0,0.2-0.1,0.4-0.2,0.6s-0.3,0.2-0.6,0.2h-0.7
	c-0.6,0-1.1,0.2-1.4,0.6c-0.3,0.4-0.4,0.9-0.4,1.5v6.3c0,0.2-0.1,0.4-0.2,0.6c-0.1,0.1-0.3,0.2-0.6,0.2L244.2,151.8L244.2,151.8z"/>
<g>
	<path class="st2" d="M72,83.5c0-6-2.1-11.1-6.3-15.3s-9.3-6.3-15.3-6.3S39.3,64,35.1,68.2s-6.3,9.3-6.3,15.3s2.1,11.1,6.3,15.3
		c4.2,4.2,9.3,6.3,15.3,6.3s11.1-2.1,15.3-6.3C70,94.7,72,89.6,72,83.5z M85.5,83.5c0,9.8-3.4,18.1-10.2,24.9
		c-6.8,6.8-15.1,10.2-24.8,10.2c-9.8,0-18.1-3.4-24.9-10.2c-6.8-6.8-10.2-15.1-10.2-24.9c0-9.7,3.4-18,10.2-24.8
		s15.1-10.2,24.9-10.2c9.7,0,18,3.4,24.8,10.2C82.1,65.5,85.5,73.8,85.5,83.5z"/>
	<path class="st2" d="M205.2,55.2c0,1.9-0.6,3.6-1.9,4.8c-1.3,1.3-2.9,1.9-4.8,1.9h-24.8v14.9h18.5c1.9,0,3.6,0.6,4.8,1.9
		c1.3,1.3,1.9,2.9,1.9,4.8s-0.6,3.6-1.9,4.8c-1.3,1.3-2.9,1.9-4.8,1.9h-18.5v15h24.8c1.9,0,3.6,0.6,4.8,1.9c1.3,1.3,1.9,2.9,1.9,4.8
		s-0.6,3.6-1.9,4.8c-1.3,1.3-2.9,1.9-4.8,1.9l-31.5-0.1c-1.8,0-3.4-0.7-4.7-2c-1.4-1.4-2-3-2-4.7V55c0-1.8,0.6-3.4,2-4.7
		c1.4-1.4,2.9-2,4.7-2h31.5c1.9,0,3.6,0.6,4.8,1.9c1.3,1.3,1.9,2.9,1.9,4.8V55.2z"/>
	<path class="st2" d="M151.7,103.7c0,2.3-1.7,4.8-5.1,7.4c-6.5,5-13.8,7.6-21.8,7.6c-9.7,0-18-3.5-24.8-10.3S89.7,93.3,89.7,83.6
		s3.5-18,10.3-24.8s15.1-10.3,24.8-10.3c8.1,0,15.3,2.5,21.8,7.6c3.4,2.7,5.1,5.1,5.1,7.4c0,1.8-0.7,3.5-2.1,4.8
		c-1.4,1.4-3,2.1-4.8,2.1c-1.5,0-3.1-0.7-4.7-2.1c-0.4-0.4-1.1-1-2.1-1.9c-3.8-3-8.2-4.5-13.2-4.5c-6,0-11.1,2.1-15.3,6.3
		c-4.2,4.2-6.3,9.3-6.3,15.3s2.1,11.1,6.3,15.3c4.2,4.2,9.3,6.3,15.3,6.3c5,0,9.4-1.5,13.2-4.5c0.4-0.4,1.1-1,2.1-1.9
		c1.7-1.4,3.2-2.1,4.7-2.1c1.8,0,3.5,0.7,4.8,2.1C151,100.2,151.7,101.9,151.7,103.7z"/>
	<path class="st1" d="M266.1,83.5c0-6-2.1-11.1-6.3-15.3c-4.2-4.2-9.3-6.3-15.3-6.3s-11.1,2.1-15.3,6.3s-6.3,9.3-6.3,15.3
		s2.1,11.1,6.3,15.3c4.2,4.2,9.3,6.3,15.3,6.3s11.1-2.1,15.3-6.3C264,94.7,266.1,89.6,266.1,83.5z M279.5,83.5
		c0,9.8-3.4,18.1-10.2,24.9c-6.8,6.8-15.1,10.2-24.8,10.2c-9.8,0-18.1-3.4-24.9-10.2c-6.8-6.8-10.2-15.1-10.2-24.9
		c0-9.7,3.4-18,10.2-24.8s15.1-10.2,24.9-10.2c9.7,0,18,3.4,24.8,10.2S279.5,73.8,279.5,83.5z"/>
</g>
<path class="st2" d="M286,13.3c-1.9,14.9-12.8,25.4-12.8,32.5S279,58.6,286,58.6s12.8-5.8,12.8-12.8S287.8,28.2,286,13.3z"/>
<path class="st3" d="M289.1,56.3c4.5-1.4,7.8-5.5,7.8-10.5c0-3.3-3.8-9.4-5.5-12.4c-0.2-0.4-0.5-0.9-0.7-1.3c1.4,4.3,3,9.6,2.9,12.5
	C293.5,49.5,291.8,53.9,289.1,56.3L289.1,56.3z"/>
<path class="st2" d="M261.4,10.2c-1.2,9.6-8.3,16.5-8.3,21.1s3.7,8.3,8.3,8.3s8.3-3.7,8.3-8.3C269.7,26.6,262.6,19.9,261.4,10.2z"/>
<path class="st3" d="M264.1,37.7c2.3-1.3,3.9-3.8,3.8-6.7c0-1.6-1.2-4-2.4-6c0.3,1.5,0.5,2.9,0.5,3.9
	C266,32.3,265.3,35.5,264.1,37.7L264.1,37.7z"/>
<g class="st4">
	<path d="M302.5,19.2h-3.7v-1.3h9.1v1.3h-3.8v10.9h-1.6V19.2z"/>
	<path d="M319.6,24.7c-0.1-1.7-0.2-3.8-0.2-5.3h-0.1c-0.4,1.4-0.9,3-1.5,4.7l-2.2,6h-1.2l-2-5.9c-0.6-1.7-1.1-3.3-1.4-4.8h0
		c0,1.5-0.1,3.6-0.2,5.4l-0.3,5.3h-1.5l0.9-12.3h2l2.1,5.9c0.5,1.5,0.9,2.9,1.2,4.1h0.1c0.3-1.2,0.7-2.6,1.3-4.1l2.2-5.9h2l0.8,12.3
		h-1.5L319.6,24.7z"/>
</g>
</svg>
